<svg width="280" height="280" viewBox="0 0 280 280" fill="none" xmlns="http://www.w3.org/2000/svg">
<g id="021">
<g id="img/sun">
<mask id="mask0" mask-type="alpha" maskUnits="userSpaceOnUse" x="41" y="21" width="198" height="151">
<rect id="Rectangle 1" x="41" y="21" width="198" height="151" fill="#C4C4C4"/>
</mask>
<g mask="url(#mask0)">
<path id="Vector" d="M225.8 169.6C225.8 169.6 213.1 155.4 202.6 149.4C202.2 149.1 201.7 148.9 201.3 148.7C211.5 151.4 224.4 151.9 224.4 151.9C224.4 151.9 216.4 145.5 208 140.8C212.9 140.9 216.6 140.7 216.6 140.7C216.6 140.7 209.3 136 201.7 132.6C209.7 132.3 217.6 130.9 217.6 130.9C217.6 130.9 212.4 128.4 206.2 126.1C207 126.1 207.9 126.1 208.8 126.1C220.9 126.1 239 120.2 239 120.2C239 120.2 220.9 114.3 208.8 114.3C208.3 114.3 207.8 114.3 207.3 114.3C217.4 111.5 228.9 105.6 228.9 105.6C228.9 105.6 218.8 104.1 209.2 104.1C213.5 101.7 216.6 99.7 216.6 99.7C216.6 99.7 207.9 99.2 199.6 100.1C206.4 95.9 212.5 90.7 212.5 90.7C212.5 90.7 206.7 91.1 200.2 92.3C200.9 91.9 201.7 91.5 202.5 91C213 85 225.7 70.8 225.7 70.8C225.7 70.8 207.1 74.7 196.6 80.8C196.2 81.1 195.8 81.3 195.3 81.6C202.7 74.1 209.7 63.2 209.7 63.2C209.7 63.2 200.2 66.9 191.9 71.8C194.4 67.6 196.1 64.3 196.1 64.3C196.1 64.3 188.3 68.2 181.6 73.1C185.3 66.1 188.1 58.5 188.1 58.5C188.1 58.5 183.3 61.8 178.3 66C178.7 65.3 179.2 64.6 179.6 63.8C185.6 53.4 189.6 34.7 189.6 34.7C189.6 34.7 175.5 47.5 169.5 58C169.2 58.4 169 58.9 168.8 59.3C171.5 49.1 172 36.2 172 36.2C172 36.2 165.6 44.2 160.9 52.5C161 47.6 160.8 43.9 160.8 43.9C160.8 43.9 156 51.2 152.6 58.8C152.3 50.9 150.9 42.9 150.9 42.9C150.9 42.9 148.4 48.1 146.1 54.3C146.1 53.5 146.1 52.6 146.1 51.7C146.1 39.6 140.2 21.5 140.2 21.5C140.2 21.5 134.3 39.6 134.3 51.7C134.3 52.2 134.3 52.7 134.3 53.2C131.5 43.1 125.5 31.6 125.5 31.6C125.5 31.6 124 41.7 124 51.3C121.6 47 119.6 43.9 119.6 43.9C119.6 43.9 119.1 52.6 120 60.9C116 54.1 110.8 48 110.8 48C110.8 48 111.2 53.8 112.4 60.3C112 59.6 111.6 58.8 111.1 58C105.1 47.5 91 34.8 91 34.8C91 34.8 94.9 53.4 101 63.9C101.3 64.3 101.5 64.8 101.8 65.2C94.3 57.8 83.4 50.8 83.4 50.8C83.4 50.8 87.1 60.3 92 68.6C87.8 66.1 84.5 64.4 84.5 64.4C84.5 64.4 88.4 72.2 93.3 78.9C86.3 75.2 78.7 72.4 78.7 72.4C78.7 72.4 82 77.2 86.2 82.2C85.5 81.8 84.8 81.3 84 80.9C73.5 74.9 54.9 70.9 54.9 70.9C54.9 70.9 67.6 85.1 78 91.1C78.4 91.4 78.9 91.6 79.3 91.8C69.1 89.1 56.2 88.6 56.2 88.6C56.2 88.6 64.2 95 72.5 99.7C67.6 99.6 63.9 99.8 63.9 99.8C63.9 99.8 71.2 104.5 78.8 107.9C70.8 108.2 62.9 109.6 62.9 109.6C62.9 109.6 68.1 112.1 74.3 114.4C73.5 114.4 72.6 114.4 71.7 114.4C59.6 114.4 41.5 120.3 41.5 120.3C41.5 120.3 59.6 126.2 71.7 126.2C72.2 126.2 72.7 126.2 73.2 126.2C63.1 129 51.5 135 51.5 135C51.5 135 61.6 136.5 71.2 136.5C66.9 138.9 63.8 140.9 63.8 140.9C63.8 140.9 72.5 141.4 80.8 140.5C74 144.7 67.9 149.9 67.9 149.9C67.9 149.9 73.7 149.5 80.2 148.3C79.5 148.7 78.7 149.1 77.9 149.6C67.4 155.6 54.7 169.8 54.7 169.8C54.7 169.8 73.3 165.9 83.8 159.8C84.2 159.5 84.7 159.3 85.1 159C77.7 166.5 70.7 177.4 70.7 177.4C70.7 177.4 80.2 173.7 88.5 168.8C86 173 84.3 176.3 84.3 176.3C84.3 176.3 92.1 172.4 98.8 167.5C95.1 174.5 92.3 182.1 92.3 182.1C92.3 182.1 97.1 178.8 102.1 174.6C101.7 175.3 101.2 176 100.8 176.8C94.8 187.2 90.8 205.9 90.8 205.9C90.8 205.9 105 193.2 111 182.7C111.3 182.3 111.5 181.8 111.7 181.4C109 191.6 108.5 204.5 108.5 204.5C108.5 204.5 114.9 196.5 119.6 188.2C119.5 193.1 119.7 196.8 119.7 196.8C119.7 196.8 124.5 189.5 127.9 181.9C128.2 189.9 129.6 197.8 129.6 197.8C129.6 197.8 132.1 192.6 134.4 186.4C134.4 187.2 134.4 188.1 134.4 189C134.4 201.1 140.3 219.2 140.3 219.2C140.3 219.2 146.2 201.1 146.2 189C146.2 188.5 146.2 188 146.2 187.5C149 197.6 155 209.1 155 209.1C155 209.1 156.5 199 156.5 189.4C158.9 193.7 160.9 196.8 160.9 196.8C160.9 196.8 161.4 188.1 160.5 179.8C164.7 186.6 169.9 192.7 169.9 192.7C169.9 192.7 169.5 186.9 168.3 180.4C168.7 181.1 169.1 181.9 169.6 182.7C175.6 193.1 189.8 205.9 189.8 205.9C189.8 205.9 185.9 187.3 179.8 176.8C179.5 176.4 179.3 175.9 179 175.5C186.5 182.9 197.4 189.9 197.4 189.9C197.4 189.9 193.7 180.4 188.8 172.1C193 174.6 196.3 176.3 196.3 176.3C196.3 176.3 192.4 168.5 187.5 161.8C194.5 165.5 202.1 168.3 202.1 168.3C202.1 168.3 198.8 163.5 194.6 158.5C195.3 158.9 196 159.4 196.8 159.9C207.2 165.7 225.8 169.6 225.8 169.6Z" fill="url(#paint0_radial)"/>
<path id="Vector_2" d="M140.3 56.6C175.5 56.6 204 85.1 204 120.2C204 155.3 175.5 183.8 140.3 183.8C105.1 183.8 76.6 155.3 76.6 120.2C76.7 85.1 105.2 56.6 140.3 56.6Z" fill="url(#paint1_linear)"/>
<path id="Vector_3" d="M140.3 63C160.5 63 180 74.3 184.6 91.3C190.4 112.7 171.3 134.7 140.3 134.7C109.3 134.7 90.2 112.7 96 91.3C100.7 74.3 120.1 63 140.3 63Z" fill="url(#paint2_linear)"/>
</g>
</g>
<g id="img/clouds2">
<path id="Vector_4" d="M65.8 169.9C65.8 179.411 75.0211 186.9 85.9 186.9C92.4353 186.9 98.2924 184.252 101.973 180.081C107.844 185.662 117.044 189.3 127.3 189.3C136.446 189.3 144.792 186.462 150.581 181.904C157.52 187.744 166.993 191.3 177.4 191.3C190.105 191.3 201.385 185.962 208.318 177.751C211.529 184.566 219.366 189.3 228.5 189.3C240.274 189.3 250.2 181.315 250.2 171C250.2 162.599 243.515 155.676 234.648 153.53C234.787 152.671 234.9 151.741 234.9 150.8C234.9 140.648 226.652 132.4 216.5 132.4C216.056 132.4 215.616 132.428 215.197 132.469C214.968 114.016 200.008 99.2 181.5 99.2C166.622 99.2 153.944 108.933 149.519 122.339C145.729 118.94 140.674 116.9 135.2 116.9C124.452 116.9 115.406 124.921 113.967 135.417C110.897 133.498 107.317 132.4 103.5 132.4C92.4443 132.4 83.6 141.351 83.6 152.3V152.327C83.6 152.579 83.6 152.829 83.6091 153.086C73.7298 154.105 65.8 161.115 65.8 169.9Z" fill="#D1E1F3" stroke="#6E8ECF" stroke-width="2" stroke-miterlimit="10"/>
<path id="Vector_5" d="M100 163.9C108.8 164.4 116 159.5 117.4 152.6C121.9 156.7 128.6 159.5 135.9 159.9C147 160.6 156.2 155.6 158.8 148.3C164.2 157.2 174.8 163.6 186.8 164.3C193.5 164.7 199.6 163.3 204.6 160.5C206.5 167.2 213.5 172.5 221.9 173C231.5 173.6 239.1 167.5 238.9 159.3C238.9 158.5 238.8 157.8 238.6 157C238.8 156.7 239 156.4 239.2 156.1C237.5 155.2 235.6 154.5 233.6 154.1C233.8 153 234 151.8 234 150.6C234 141 226.2 133.2 216.6 133.2C215.8 133.2 215 133.3 214.3 133.4C214.3 133.2 214.3 132.9 214.3 132.7C214.3 114.6 199.7 100 181.6 100C166.6 100 153.9 110.2 150.1 124C146.4 120.1 141.1 117.7 135.3 117.7C124.4 117.9 115.4 126.4 114.8 137.2C111.6 134.8 107.7 133.4 103.5 133.4C89.6591 133.4 82.6072 147.896 84.6 153.975C85.9003 157.941 89.7674 163.298 100 163.9Z" fill="white"/>
<path id="Vector_6" d="M194.3 204.4C205.179 204.4 214.4 196.911 214.4 187.4C214.4 178.621 206.571 171.606 196.691 170.586C196.7 170.329 196.7 170.079 196.7 169.827V169.8C196.7 158.851 187.856 149.9 176.8 149.9C172.983 149.9 169.403 150.998 166.333 152.917C164.893 142.419 155.84 134.4 145 134.4C139.526 134.4 134.471 136.44 130.681 139.839C126.256 126.433 113.578 116.7 98.7 116.7C80.1916 116.7 65.2324 131.516 65.0027 149.969C64.5845 149.928 64.1443 149.9 63.7 149.9C53.5477 149.9 45.3 158.148 45.3 168.3C45.3 169.241 45.4132 170.171 45.5516 171.03C36.6854 173.176 30 180.099 30 188.5C30 198.815 39.9262 206.8 51.7 206.8C60.8343 206.8 68.6709 202.066 71.882 195.251C78.8148 203.462 90.0953 208.8 102.8 208.8C113.207 208.8 122.68 205.244 129.619 199.404C135.408 203.962 143.754 206.8 152.9 206.8C163.156 206.8 172.356 203.162 178.227 197.581C181.908 201.752 187.765 204.4 194.3 204.4Z" fill="#D1E1F3" stroke="#6E8ECF" stroke-width="2" stroke-miterlimit="10"/>
<path id="Vector_7" d="M180.2 181.4C171.4 181.9 164.2 177 162.8 170.1C158.3 174.2 151.6 177 144.3 177.4C133.2 178.1 124 173.1 121.4 165.8C116 174.7 105.4 181.1 93.4 181.8C86.7 182.2 80.6 180.8 75.6 178C73.7 184.7 66.7 190 58.3 190.5C48.7 191.1 41.1 185 41.3 176.8C41.3 176 41.4 175.3 41.6 174.5C41.4 174.2 41.2 173.9 41 173.6C42.7 172.7 44.6 172 46.6 171.6C46.4 170.5 46.2 169.3 46.2 168.1C46.2 158.5 54 150.7 63.6 150.7C64.4 150.7 65.2 150.8 65.9 150.9C65.9 150.7 65.9 150.4 65.9 150.2C65.9 132.1 80.5 117.5 98.6 117.5C113.6 117.5 126.3 127.7 130.1 141.5C133.8 137.6 139.1 135.2 144.9 135.2C155.8 135.2 164.8 143.7 165.4 154.5C168.6 152.1 172.5 150.7 176.7 150.7C190.654 150.7 197.967 165.134 195.418 171.971C193.956 175.892 189.993 180.824 180.2 181.4Z" fill="white"/>
</g>
</g>
<defs>
<radialGradient id="paint0_radial" cx="0" cy="0" r="1" gradientUnits="userSpaceOnUse" gradientTransform="translate(140.25 120.35) rotate(90) scale(98.85 98.75)">
<stop stop-color="#FFE31A"/>
<stop offset="1" stop-color="#FFC43A"/>
</radialGradient>
<linearGradient id="paint1_linear" x1="140.3" y1="56.6" x2="140.3" y2="183.8" gradientUnits="userSpaceOnUse">
<stop stop-color="#FFA100"/>
<stop offset="1" stop-color="#FFE31A"/>
</linearGradient>
<linearGradient id="paint2_linear" x1="140.3" y1="63" x2="140.3" y2="134.7" gradientUnits="userSpaceOnUse">
<stop stop-color="#FFD300"/>
<stop offset="1" stop-color="#FFC90F"/>
</linearGradient>
</defs>
</svg>
